<?xml version="1.0" encoding="iso-8859-1"?>
<!-- Uploaded to: SVG Repo, www.svgrepo.com, Generator: SVG Repo Mixer Tools -->
<svg height="800px" width="800px" version="1.1" id="Layer_1" xmlns="http://www.w3.org/2000/svg" xmlns:xlink="http://www.w3.org/1999/xlink" 
	 viewBox="0 0 512 512" xml:space="preserve">
<g>
	<g>
		<path style="fill:#CF488E;" d="M61.793,406.069c-4.882,0-8.828-3.955-8.828-8.828c0-4.873,3.946-8.828,8.828-8.828
			c24.338,0,44.138-19.8,44.138-44.138c0-4.873,3.946-8.828,8.828-8.828s8.828,3.955,8.828,8.828
			C123.586,378.35,95.859,406.069,61.793,406.069"/>
		<path style="fill:#CF488E;" d="M61.793,512c-4.882,0-8.828-3.955-8.828-8.828c0-4.873,3.946-8.828,8.828-8.828
			c24.338,0,44.138-19.8,44.138-44.138c0-4.873,3.946-8.828,8.828-8.828s8.828,3.955,8.828,8.828
			C123.586,484.281,95.859,512,61.793,512"/>
		<path style="fill:#CF488E;" d="M61.793,512C27.727,512,0,484.281,0,450.207c0-4.873,3.946-8.828,8.828-8.828
			s8.828,3.955,8.828,8.828c0,24.338,19.8,44.138,44.138,44.138c4.882,0,8.828,3.955,8.828,8.828
			C70.621,508.045,66.675,512,61.793,512"/>
		<path style="fill:#CF488E;" d="M8.828,459.034c-4.882,0-8.828-3.955-8.828-8.828c0-34.074,27.727-61.793,61.793-61.793
			c4.882,0,8.828,3.955,8.828,8.828c0,4.873-3.946,8.828-8.828,8.828c-24.338,0-44.138,19.8-44.138,44.138
			C17.655,455.08,13.709,459.034,8.828,459.034"/>
	</g>
	<path style="fill:#F26BAA;" d="M512,220.69c0,121.882-98.807,220.69-220.69,220.69s-220.69-98.807-220.69-220.69
		S169.428,0,291.31,0S512,98.807,512,220.69"/>
	<g>
		<path style="fill:#CF488E;" d="M163.198,111.547c-4.882,0-8.828,3.955-8.828,8.828c0,4.873,3.946,8.828,8.828,8.828
			c77.091,0,127.002-61.881,165.65-122.412c0.662-1.042,1.068-2.172,1.262-3.319c-6.109-1.086-12.288-1.942-18.564-2.507
			C261.405,78.347,216.879,111.547,163.198,111.547"/>
		<path style="fill:#CF488E;" d="M421.97,42.861c-4.732-3.487-9.613-6.78-14.618-9.887c-0.009,0.009-0.018,0.018-0.026,0.026
			c-37.473,58.677-84.78,118.669-151.623,118.669c-4.882,0-8.828,3.955-8.828,8.828c0,4.882,3.946,8.828,8.828,8.828
			C330.914,169.325,381.963,105.466,421.97,42.861"/>
		<path style="fill:#CF488E;" d="M494.336,158.965c3.769-1.059,6.153-4.423,6.312-8.13c-0.68-2.039-1.333-4.087-2.066-6.091
			c-2.172-2.507-5.623-3.725-9.039-2.772c-142.601,40.157-263.83,14.68-320.715-28.39c-18.82-14.248-29.193-29.652-29.193-43.361
			c0-2.719-1.298-5.058-3.231-6.682c-4.767,4.705-9.313,9.631-13.639,14.751c3.019,16.878,15.289,34.136,35.407,49.373
			c39.477,29.89,107.573,51.95,191.523,51.95C394.108,179.613,442.968,173.434,494.336,158.965"/>
		<path style="fill:#CF488E;" d="M499.535,242.298c-97.58,27.913-280.691,32.75-382.332-43.882
			c-17.876-13.48-27.719-26.942-27.719-37.914c0-4.529-3.46-8.13-7.865-8.633c-2.569,7.848-4.758,15.872-6.453,24.082
			c4.961,12.156,15.501,24.567,31.409,36.564c51.103,38.532,144.154,67.328,248.373,67.328c48.428,0,99.284-6.215,149.451-20.568
			c2.092-0.6,3.699-1.969,4.82-3.655c0.406-2.525,0.724-5.076,1.042-7.627C508.759,243.551,504.054,241.009,499.535,242.298"/>
		<path style="fill:#CF488E;" d="M453.589,370.21c4.714-5.111,9.19-10.452,13.409-15.996c-1.607-1.201-3.513-1.986-5.5-1.907
			c-212.454,8.342-329.622-21.345-379.895-96.406c-1.986-2.957-5.429-4.281-8.713-3.761c1.439,10.081,3.575,19.933,6.329,29.528
			c52.524,61.175,152.585,89.653,317.087,89.653C414.553,371.323,433.744,370.908,453.589,370.21"/>
	</g>
</g>
</svg>